<svg xmlns="http://www.w3.org/2000/svg" viewBox="0 0 520 300" role="img" aria-labelledby="title desc">
  <title id="title">Απλό διάγραμμα τοποθεσίας στη Γλυφάδα</title>
  <desc id="desc">Σχηματικό διάγραμμα με σημείο ενδιαφέροντος στη Λεωφόρο Ελευθερίου Βενιζέλου.</desc>
  <rect width="520" height="300" rx="10" fill="#ebe6dc"/>
  <g fill="none" stroke="#c9c3b8" stroke-width="9" stroke-linecap="round">
    <path d="M48 62H472"/>
    <path d="M48 238H472"/>
    <path d="M96 28V272"/>
    <path d="M224 28V272"/>
    <path d="M352 28V272"/>
    <path d="M432 42c-38 32-64 65-78 102-16 42-12 82 10 120"/>
    <path d="M32 152h168c48 0 83-18 120-46 37-29 72-41 168-36"/>
  </g>
  <path d="M86 150h344" stroke="#1f6f70" stroke-width="18" stroke-linecap="round"/>
  <g fill="#17232b" font-family="Arial, Helvetica, sans-serif">
    <text x="110" y="139" font-size="17" font-weight="700">Λ. Ελευθερίου Βενιζέλου</text>
    <text x="34" y="44" font-size="15">Γλυφάδα</text>
    <text x="350" y="268" font-size="13" fill="#59666d">σχηματική απεικόνιση</text>
  </g>
  <g transform="translate(330 98)">
    <path d="M45 6c-25 0-45 20-45 45 0 34 45 82 45 82s45-48 45-82C90 26 70 6 45 6z" fill="#b98533"/>
    <circle cx="45" cy="51" r="18" fill="#fff"/>
    <circle cx="45" cy="51" r="9" fill="#17232b"/>
  </g>
  <rect x="282" y="218" width="186" height="44" rx="6" fill="#fff" opacity=".86"/>
  <text x="300" y="245" fill="#17232b" font-family="Arial, Helvetica, sans-serif" font-size="16" font-weight="700">Medical Path</text>
</svg>
